PathFileType	4	(X/Y/Z)	C:/Users/beibeiliu/ov580/test_trc\sequence.35_training_dense_right.trc
DataRate	CameraRate	NumFrames	NumMarkers	Units	OrigDataRate	OrigDataStartFrame	OrigNumFrames
120	120	18	19	mm	120	113	169
Frame#	Time	ThumbCMC			ThumbMCP			ThumbIP			ThumbTip			IndexMCP			IndexPIP			IndexTip			MiddleMCP			MiddlePIP			MiddleTip			RingMCP			RingPIP			RingTip			PinkyMCP			PinkyPIP			PinkyTip			BackHand1			BackHand2			BackHand3	
		X0	Y0	Z0	X1	Y1	Z1	X2	Y2	Z2	X3	Y3	Z3	X4	Y4	Z4	X5	Y5	Z5	X6	Y6	Z6	X7	Y7	Z7	X8	Y8	Z8	X9	Y9	Z9	X10	Y10	Z10	X11	Y11	Z11	X12	Y12	Z12	X13	Y13	Z13	X14	Y14	Z14	X15	Y15	Z15	X16	Y16	Z16	X17	Y17	Z17	X18	Y18	Z18	
112	0.933333	133.896	63.197	41.6596	134.409	76.4	19.7826	143.122	87.0061	4.09227	149.919	96.347	-13.7098	128.936	48.0486	-19.088	125.822	51.0056	-47.6514	119.155	61.6126	-64.96	110.222	27.9198	-25.0246	99.2864	25.525	-47.0553	83.3268	43.4515	-68.643	91.6385	24.6637	-15.6664	77.9234	35.0568	-37.7945	64.0423	58.9135	-40.3507	74.176	20.6763	2.78412	59.9117	28.856	-17.7047	56.7053	53.1931	-20.1671	103.975	19.4072	26.4122	109.903	19.5944	52.4936	128.124	35.241	35.2645	
113	0.941667	127.56	79.1978	44.9885	125.738	94.8083	25.438	133.797	104.733	4.14614	136.267	115.205	-8.38384	132.235	59.8373	-18.7437	133.097	68.2548	-43.4094	116.425	77.0005	-67.2114	118.275	34.4455	-21.3729	110.407	33.2452	-52.4293	95.1066	44.7121	-68.2405	104.02	28.0039	-17.3701	88.7012	29.0301	-40.4274	71.5092	51.9242	-46.4952	88.3729	14.4615	-0.786511	80.2401	13.1443	-22.9628	65.7832	22.1634	-35.2538	112.075	28.8854	24.887	115.008	30.8988	54.5755	130.366	49.3287	38.4839	
114	0.95	126.024	79.6048	43.4359	124.723	93.4255	25.5436	130.126	102.432	7.03368	137.319	113.379	-11.5679	133.589	63.8358	-19.1513	130.334	71.1993	-45.6274	113.78	81.858	-63.4553	120.018	35.5614	-23.63	115.316	39.3048	-49.6574	95.894	52.1792	-67.706	105.537	29.8742	-18.1846	88.6262	35.6617	-41.8413	72.965	53.1406	-42.8442	89.0069	15.1694	2.451	82.2047	8.66122	-20.345	71.6386	10.3052	-36.2128	111.462	28.5702	30.0856	116.662	31.3818	50.5904	130.193	51.4023	39.824	
115	0.958333	129.872	69.7672	45.2974	133.03	84.1224	22.8946	139.73	91.2841	3.80079	142.582	96.711	-15.621	127.919	49.6662	-20.7852	125.656	60.6836	-48.5312	111.079	80.5299	-63.5425	111.915	31.041	-25.3733	99.3598	34.4665	-54.4559	85.4186	55.0437	-70.824	90.5089	27.1851	-15.8504	79.7721	42.1272	-38.1759	67.7614	65.4951	-29.9736	78.6991	17.4557	-0.898799	70.8213	12.8836	-20.535	63.3084	11.552	-36.9985	103.736	24.0729	28.9795	108.378	25.238	52.2751	126.779	35.9744	35.4059	
116	0.966667	125.61	51.723	35.9085	132.542	66.0483	13.7531	142.388	71.6478	-6.21681	145.995	76.0793	-20.1156	114.354	37.3183	-27.0336	112.79	49.7084	-55.2602	98.6603	70.2375	-67.5146	93.082	26.2903	-31.3883	78.1533	33.1362	-55.7787	66.8634	51.0365	-72.6056	72.1828	33.2027	-22.7534	62.6452	55.1304	-33.5487	67.0782	75.2806	-17.3017	60.8117	22.6927	-3.31789	50.8551	21.3127	-15.6114	41.8568	21.1784	-36.4732	89.2318	19.2061	21.0737	97.1002	17.009	50.6605	117.845	24.419	32.1895	
117	0.975	122.174	41.9681	32.5614	132.641	55.1685	12.3922	136.135	58.0662	-9.31931	147.968	63.777	-26.213	108.243	32.3981	-33.3841	104.907	43.6744	-55.7431	95.4339	63.9526	-70.8288	80.6087	24.8844	-31.7196	71.9791	31.0346	-52.4729	58.1461	49.7929	-73.4412	60.5305	37.1347	-20.2282	58.9859	62.5074	-27.2183	72.9853	78.7681	-6.83109	46.4944	25.9883	-2.43227	39.5383	27.0358	-13.7074	27.7031	27.1908	-33.4985	80.6691	16.2406	20.0347	84.6983	13.9439	48.8293	107.331	17.5239	24.3841	
118	0.983333	125.313	36.2687	33.2142	130.635	48.8675	8.19293	139.012	55.0451	-8.61457	146.221	59.1545	-26.8914	104.185	30.3267	-30.197	101.518	40.755	-54.2163	95.6777	59.5046	-72.5524	77.6146	25.2338	-28.5147	67.1974	31.4353	-51.4131	51.9685	46.6376	-71.5158	56.5142	39.3978	-20.3809	57.6319	67.4184	-23.3971	74.1134	79.3683	-7.0213	46.9292	28.0004	3.04223	30.8937	30.6685	-13.2254	24.47	30.1593	-26.8933	76.4691	12.9404	23.3304	82.7773	10.9309	48.0694	103.781	11.8372	23.825	
119	0.991667	127.245	36.0579	32.8534	135.546	49.1567	11.0367	140.232	54.7716	-7.29508	148.293	61.5084	-23.703	106.696	30.2447	-28.1871	99.7262	42.4108	-52.7141	95.7998	60.527	-68.2589	78.6112	23.8911	-30.1861	69.0342	31.2653	-51.4194	55.718	43.4585	-68.5436	63.8842	34.1721	-17.3542	58.7061	61.8654	-27.5073	71.9174	77.157	-15.6123	48.3143	28.2859	7.20955	35.9821	30.2613	-12.2623	25.7347	29.6692	-25.7786	80.8748	15.1664	25.7199	87.9614	9.85739	46.3644	108.92	13.7067	26.1369	
120	1	136.271	33.3282	36.8559	145.407	47.1046	12.9942	148.864	54.3412	-4.97971	157.632	60.9672	-19.0965	111.305	29.6151	-30.0674	108.797	45.024	-49.3278	101.208	67.1138	-56.9932	90.3523	20.1556	-29.5645	79.3814	25.0479	-47.9326	68.3168	37.5252	-70.9164	72.2095	23.1755	-15.0583	63.2865	40.8495	-33.8191	69.0282	66.8012	-30.266	56.1017	23.803	8.20735	45.1624	23.627	-6.28049	32.4782	21.9838	-23.4009	88.7612	11.6772	23.6536	96.8027	6.34711	52.3153	115.701	8.5464	29.284	
121	1.00833	144.319	31.6314	39.6576	152.108	46.8344	23.1487	159.468	52.2011	-1.53401	169.525	59.2344	-13.9008	121.126	30.5724	-23.6905	117.595	56.7519	-39.5829	109.076	81.5266	-32.1006	99.3332	16.5826	-22.7608	94.5068	21.4813	-47.4187	82.0683	35.3204	-72.5317	81.0973	12.9362	-10.6481	71.7272	22.856	-36.0814	73.1561	44.2624	-49.8285	65.5014	17.1559	7.53654	56.3946	15.0536	-6.48868	41.4878	11.4347	-20.4493	97.1745	7.71466	27.2639	101.264	5.13747	53.0268	121.217	7.78268	32.0837	
122	1.01667	148.265	34.1138	41.0231	155.599	49.9371	23.4867	161.843	55.2658	2.99053	171.036	60.1133	-13.0463	125.964	39.7655	-22.5282	118.423	67.1852	-27.7176	115.474	84.9877	-12.3145	107.257	19.5461	-22.3828	99.1152	26.3493	-45.4529	92.3659	38.2091	-71.3931	86.0932	13.3699	-11.9156	78.6899	17.1135	-35.5685	71.7704	28.8177	-55.2899	72.3164	15.6738	4.17494	62.9935	13.3365	-5.51429	45.1562	7.99705	-19.6721	99.5223	6.96683	27.5451	104.656	4.96552	57.2557	131.163	8.48946	36.7928	
123	1.025	149.26	35.2509	44.9362	157.355	50.8252	22.6221	162.043	56.2602	6.92452	177.377	64.7679	-6.16118	128.026	43.6411	-19.2648	120.276	70.3622	-20.043	113.317	85.6508	7.31776	108.519	22.4874	-23.9715	103.748	31.3509	-47.4441	97.5977	41.0335	-69.2408	89.6257	13.7687	-14.5542	82.8271	18.0134	-35.3438	74.6672	25.3259	-52.897	74.3498	13.5961	9.2388	61.3989	9.80195	-7.29906	51.9434	1.91992	-18.4363	101.742	6.50651	29.091	108.984	2.50462	55.6748	132.335	10.083	36.7286	
124	1.03333	147.256	33.265	43.1867	155.294	47.8739	25.5685	165.175	55.9322	6.09343	175.459	61.7892	-6.96904	128.217	45.4165	-19.3525	119.552	70.3463	-16.256	116.587	83.7344	8.21605	113.572	23.4219	-27.9828	104.746	29.4684	-44.4666	96.8557	39.8217	-69.8973	89.3726	14.325	-13.5166	81.4319	17.7968	-34.397	76.635	27.8707	-55.2267	73.899	10.1463	5.7185	64.3219	7.4593	-8.35516	57.448	0.777885	-20.7649	105.789	6.63377	26.7998	114.051	1.47168	54.2777	135.5	8.87479	34.8828	
125	1.04167	149.024	30.8931	43.1769	157.719	47.2722	22.3582	164.689	54.2705	5.90637	177.573	59.7967	-8.21419	130.376	39.6577	-19.7717	123.036	66.2329	-23.5494	115.462	85.0197	0.261479	110.291	20.3462	-25.9337	107.992	29.9599	-50.6067	95.6745	39.7596	-72.6693	92.5349	15.9648	-16.7984	79.3799	23.3993	-37.8738	76.9599	34.6427	-52.8642	79.3233	12.4322	4.5655	69.7752	8.84607	-7.4296	59.313	1.88411	-21.043	103.964	1.67375	25.4219	110.917	-0.409635	51.107	134.731	7.22261	32.184	
126	1.05	148.723	31.0468	40.6299	156.362	47.4844	23.0699	165.876	56.0318	4.26044	172.754	63.2268	-8.20312	133.416	36.7265	-22.5295	121.074	62.2399	-33.1649	111.634	84.021	-20.7717	108.59	20.808	-28.5229	102.693	29.9676	-49.2689	92.1767	40.2738	-69.1948	87.5495	18.9204	-17.0205	80.8185	29.8441	-34.8465	71.9581	45.9885	-50.4026	76.5701	13.1601	5.98586	64.5732	11.6532	-6.5332	57.7763	4.73375	-21.7935	107.358	2.87033	24.1716	110.162	-2.50772	51.2542	135.003	4.66106	29.8858	
127	1.05833	152.253	31.5503	39.6143	155.191	50.0328	20.6809	163.249	62.1131	6.58633	170.736	71.5563	-9.23171	130.197	32.512	-24.3673	127.042	53.8161	-42.6003	116.046	78.475	-45.3487	111.735	22.4411	-26.5929	99.7825	33.7083	-48.1355	90.2628	48.2099	-68.1607	92.2604	20.5383	-15.7596	78.5676	32.829	-35.2773	71.5588	46.9345	-46.0969	74.0386	11.3911	4.43774	64.1531	12.2527	-8.52349	55.0182	5.03898	-18.9963	106.501	3.44259	24.8225	117.189	-0.449566	54.0171	134.628	6.50158	33.9274	
128	1.06667	157.186	34.7107	41.4139	156.357	54.5388	26.4559	159.786	68.6754	7.75128	167.831	82.311	-8.374	133.969	32.2642	-24.5506	125.805	44.3979	-41.2083	116.984	63.7666	-55.0269	111.902	24.517	-22.0939	101.621	40.5731	-45.3564	88.0057	62.4012	-58.6009	93.5766	17.4793	-15.6009	81.1299	27.2151	-33.6287	72.6254	41.9372	-48.3275	75.7068	9.53026	7.79593	69.9721	9.51982	-3.95704	60.3396	5.27402	-16.8724	109.82	3.22216	25.3294	118.764	-4.10675	52.4816	138.687	7.15427	34.6598	
129	1.075	153.771	34.944	39.6772	154.504	56.9138	24.127	158.921	72.522	9.07185	162.483	85.8525	-3.11141	130.162	32.5216	-24.9613	127.225	45.9559	-40.1204	116.184	62.1626	-54.4337	111.385	28.0862	-24.2436	97.4876	46.8704	-38.676	88.8124	74.7871	-43.9672	94.8216	14.9668	-11.3214	82.7378	21.4724	-27.6248	70.7984	35.2953	-46.1707	83.3649	8.75267	10.5524	66.0693	5.6555	-1.84829	56.0732	-0.289248	-13.1698	113.768	1.47094	28.3266	124.317	-2.60323	55.4055	142.851	5.86267	33.2521	
